<svg xmlns="http://www.w3.org/2000/svg" width="340" height="340" viewBox="0 0 340 340">
  <g fill="none" stroke="#6a4a24" stroke-width="3" stroke-linecap="round" stroke-linejoin="round">
    <!-- LIUTO (in alto a sinistra) -->
    <g transform="translate(58,86) rotate(-18)">
      <ellipse cx="0" cy="14" rx="30" ry="34"/>
      <circle cx="0" cy="8" r="8"/>
      <path d="M-6 -18 L-6 -66 M6 -18 L6 -66"/>
      <path d="M-9 -66 L9 -66 L7 -80 L-7 -80 Z"/>
      <path d="M-4 -22 L-4 -60 M0 -22 L0 -62 M4 -22 L4 -60"/>
      <circle cx="-9" cy="-72" r="2.5" fill="#6a4a24" stroke="none"/>
      <circle cx="9" cy="-72" r="2.5" fill="#6a4a24" stroke="none"/>
    </g>

    <!-- FLAUTO (diagonale, al centro) -->
    <g transform="translate(150,150) rotate(-20)">
      <path d="M0 0 L150 0"/>
      <path d="M0 -7 L150 -7"/>
      <path d="M0 0 L0 -7 M150 0 L150 -7"/>
      <circle cx="30" cy="-3.5" r="3"/>
      <circle cx="55" cy="-3.5" r="3"/>
      <circle cx="80" cy="-3.5" r="3"/>
      <circle cx="105" cy="-3.5" r="3"/>
      <circle cx="130" cy="-3.5" r="3"/>
    </g>

    <!-- TAMBURO (in basso a sinistra) -->
    <g transform="translate(78,250)">
      <ellipse cx="0" cy="-16" rx="36" ry="12"/>
      <path d="M-36 -16 L-36 16 M36 -16 L36 16"/>
      <path d="M-36 16 A36 12 0 0 0 36 16"/>
      <path d="M-30 -8 L-18 12 M-12 -12 L0 12 M6 -12 L18 12 M24 -10 L32 8"/>
      <!-- bacchette incrociate -->
      <path d="M-26 -46 L8 -22 M22 -48 L-10 -24"/>
      <circle cx="-27" cy="-47" r="3" fill="#6a4a24" stroke="none"/>
      <circle cx="23" cy="-49" r="3" fill="#6a4a24" stroke="none"/>
    </g>

    <!-- NOTE MUSICALI sparse (movimento) -->
    <g transform="translate(250,240)">
      <path d="M0 6 L0 -34 L26 -40 L26 -6"/>
      <path d="M0 -34 L26 -40 M0 -24 L26 -30"/>
      <ellipse cx="-6" cy="6" rx="9" ry="6.5" transform="rotate(-20 -6 6)" fill="#6a4a24" stroke="none"/>
      <ellipse cx="20" cy="-6" rx="9" ry="6.5" transform="rotate(-20 20 -6)" fill="#6a4a24" stroke="none"/>
    </g>
    <g transform="translate(268,70)">
      <path d="M0 4 L0 -30"/>
      <path d="M0 -30 q14 2 16 16"/>
      <ellipse cx="-6" cy="4" rx="8" ry="6" transform="rotate(-20 -6 4)" fill="#6a4a24" stroke="none"/>
    </g>
    <g transform="translate(150,300)">
      <path d="M0 4 L0 -30"/>
      <path d="M0 -30 q14 2 16 16"/>
      <ellipse cx="-6" cy="4" rx="8" ry="6" transform="rotate(-20 -6 4)" fill="#6a4a24" stroke="none"/>
    </g>
  </g>
</svg>
